<?xml version="1.0" standalone="no"?>
<!DOCTYPE svg PUBLIC "-//W3C//DTD SVG 20010904//EN"
 "http://www.w3.org/TR/2001/REC-SVG-20010904/DTD/svg10.dtd">
<svg version="1.0" xmlns="http://www.w3.org/2000/svg"
 width="128.000000pt" height="128.000000pt" viewBox="0 0 128.000000 128.000000"
 preserveAspectRatio="xMidYMid meet">

<g transform="translate(0.000000,128.000000) scale(0.100000,-0.100000)"
fill="#000000" stroke="none">
<path d="M769 1069 c-23 -19 -23 -20 -2 -10 38 19 78 13 107 -15 25 -26 29
-38 27 -79 -1 -17 1 -16 9 4 35 82 -74 159 -141 100z"/>
<path d="M564 1025 l-29 -26 27 16 c34 21 87 14 113 -15 10 -11 21 -37 25 -58
l8 -37 1 42 c1 53 -29 91 -80 99 -29 5 -41 1 -65 -21z"/>
<path d="M1112 985 c-12 -14 -28 -25 -34 -25 -7 0 -20 -5 -28 -10 -12 -7 -11
-13 9 -34 17 -18 28 -23 36 -16 8 7 32 6 70 -1 49 -9 60 -8 73 5 12 12 14 22
6 43 -12 35 -43 43 -51 13 -8 -30 -27 -19 -31 18 -4 38 -21 41 -50 7z"/>
<path d="M776 981 c-10 -16 5 -41 24 -41 28 0 36 21 15 37 -22 15 -32 16 -39
4z m24 -5 c0 -3 -4 -8 -10 -11 -5 -3 -10 -1 -10 4 0 6 5 11 10 11 6 0 10 -2
10 -4z"/>
<path d="M45 950 c-8 -13 4 -50 16 -50 5 0 9 -5 9 -10 0 -6 -8 -5 -20 2 -27
17 -50 -4 -34 -30 13 -19 76 -24 132 -9 24 6 38 4 49 -5 14 -11 15 -11 11 2
-7 19 10 52 23 45 5 -4 9 -2 9 4 0 12 -58 25 -112 25 -27 0 -38 5 -41 18 -6
19 -32 24 -42 8z"/>
<path d="M476 923 c12 -51 26 -79 31 -64 5 11 7 11 14 0 4 -7 12 -10 16 -5 4
4 -2 16 -14 26 -12 9 -25 29 -29 44 -3 14 -10 26 -15 26 -5 0 -6 -12 -3 -27z"/>
<path d="M608 925 c-6 -29 3 -38 26 -29 19 7 21 25 4 42 -18 18 -25 15 -30
-13z"/>
<path d="M410 894 c-57 -45 -65 -60 -50 -89 l12 -23 45 34 c24 19 49 34 54 34
9 0 3 43 -10 67 -4 8 -20 1 -51 -23z"/>
<path d="M727 881 c-10 -16 -32 -34 -50 -40 -37 -12 -97 -10 -97 4 0 5 -5 4
-12 -3 -34 -34 68 -37 131 -4 34 18 53 22 82 17 25 -4 47 -1 66 9 l28 15 -36
1 c-19 0 -44 7 -55 15 -28 21 -38 19 -57 -14z"/>
<path d="M880 784 c0 -28 -81 -56 -154 -54 -99 3 -99 3 -81 -23 8 -13 26 -29
38 -34 29 -13 165 -7 183 8 21 17 37 86 25 107 -9 15 -10 15 -11 -4z"/>
<path d="M930 756 c0 -52 -43 -172 -73 -204 -23 -25 -81 -44 -115 -37 -13 2
-35 0 -49 -6 -21 -8 -30 -6 -49 12 -22 21 -23 23 -6 36 9 8 12 12 6 9 -6 -3
-23 2 -38 9 -16 8 -32 12 -37 9 -6 -3 -8 -46 -6 -96 3 -69 8 -93 22 -106 17
-16 17 -16 12 6 -3 12 -1 20 4 16 5 -3 9 -15 9 -26 0 -12 10 -32 22 -45 12
-13 17 -23 11 -23 -7 0 -27 18 -46 41 l-35 40 -26 -26 c-14 -14 -31 -23 -36
-20 -6 4 -18 -2 -28 -12 -9 -10 -14 -15 -11 -10 11 15 -3 57 -24 72 -38 27
-42 3 -15 -104 9 -36 13 -41 19 -25 4 10 8 14 8 7 1 -6 -2 -19 -6 -28 -5 -15
-8 -14 -19 6 l-12 23 -15 -34 c-9 -19 -24 -47 -34 -62 -16 -26 -16 -29 -1 -44
12 -13 20 -14 37 -5 15 9 25 8 40 -1 15 -9 28 -9 59 1 22 8 55 11 74 7 18 -3
78 1 133 9 l100 15 28 -31 c15 -18 27 -36 27 -40 0 -23 35 -4 80 41 53 54 66
100 34 118 -13 7 -14 15 -5 47 6 21 8 42 5 47 -3 4 0 8 5 8 7 0 7 7 -1 20 -7
11 -19 19 -28 17 -12 -2 -14 13 -12 98 2 55 7 116 12 135 4 19 7 60 5 90 -2
30 -4 63 -4 73 -2 38 -21 14 -21 -27z m-277 -288 c4 -10 4 -18 2 -18 -6 0 -35
56 -35 67 0 10 25 -27 33 -49z m-48 21 c11 -17 -1 -21 -15 -4 -8 9 -8 15 -2
15 6 0 14 -5 17 -11z m-18 -41 c-3 -8 -6 -5 -6 6 -1 11 2 17 5 13 3 -3 4 -12
1 -19z m8 -137 c15 -22 25 -45 23 -52 -2 -6 -18 12 -35 40 -38 60 -28 69 12
12z m-76 -42 c-6 -12 -19 -24 -29 -26 -11 -3 -21 -12 -23 -22 -3 -11 -5 -9 -6
7 0 12 5 22 12 22 8 0 22 9 32 20 23 26 29 25 14 -1z"/>
<path d="M390 781 c0 -5 6 -14 14 -20 16 -13 32 2 21 19 -8 12 -35 13 -35 1z"/>
<path d="M436 742 c-3 -5 1 -9 9 -9 8 0 12 4 9 9 -3 4 -7 8 -9 8 -2 0 -6 -4
-9 -8z"/>
<path d="M660 525 c0 -8 5 -15 10 -15 6 0 10 7 10 15 0 8 -4 15 -10 15 -5 0
-10 -7 -10 -15z"/>
</g>
</svg>
